<svg width="203" height="588" viewBox="0 0 203 588" fill="none" xmlns="http://www.w3.org/2000/svg">
<path d="M62.2041 58.309L53.7952 51.3928C54.5364 50.1786 55.0176 48.9544 55.2388 47.7201C55.4705 46.4731 55.4626 45.2435 55.215 44.0314C54.9675 42.8193 54.4889 41.6532 53.7794 40.5332C53.0826 39.4237 52.1711 38.4058 51.0448 37.4794C49.0097 35.8056 46.8213 34.8532 44.4793 34.6221C42.148 34.3783 39.7768 34.8742 37.3658 36.1098C34.9654 37.3325 32.644 39.307 30.4018 42.0332C28.0964 44.8362 26.5754 47.5333 25.8388 50.1246C25.115 52.7265 25.1083 55.1348 25.8185 57.3497C26.5287 59.5646 27.8758 61.4879 29.8596 63.1196C30.9731 64.0354 32.1245 64.7357 33.3137 65.2203C34.5158 65.7154 35.7196 65.9867 36.9251 66.0341C38.1411 66.0687 39.3292 65.8765 40.4893 65.4573C41.6622 65.0488 42.7762 64.3987 43.8314 63.5071L52.2088 70.4616C50.5069 72.0873 48.5313 73.3806 46.2819 74.3414C44.0559 75.3 41.6712 75.8384 39.1278 75.9566C36.6078 76.0726 34.0272 75.6882 31.3862 74.8034C28.7685 73.9163 26.1989 72.4359 23.6775 70.3621C20.1706 67.4777 17.6875 64.105 16.2283 60.2442C14.7818 56.3938 14.4956 52.3068 15.3695 47.9832C16.2563 43.6701 18.4577 39.3761 21.9737 35.1012C25.5002 30.8136 29.3067 27.8291 33.3932 26.1477C37.4797 24.4663 41.5526 23.9754 45.612 24.675C49.682 25.3617 53.4448 27.1262 56.9005 29.9685C59.1787 31.8423 61.0274 33.8992 62.4465 36.1393C63.8784 38.3898 64.8442 40.7505 65.3439 43.2214C65.8541 45.6795 65.8564 48.1812 65.3508 50.7264C64.858 53.2822 63.8091 55.8097 62.2041 58.309Z" fill="white"/>
<path d="M68.4411 114.768C66.0036 111.688 64.5292 108.544 64.018 105.334C63.53 102.128 63.9629 99.0164 65.3167 96.0005C66.6834 92.9743 68.9456 90.2116 72.1033 87.7124C75.1829 85.2749 78.3588 83.7334 81.631 83.0879C84.9032 82.4424 88.0478 82.6904 91.0648 83.832C94.0921 84.9865 96.7679 87.0321 99.0923 89.9689C100.656 91.944 101.793 94.0347 102.503 96.2409C103.237 98.4498 103.478 100.69 103.225 102.961C102.983 105.245 102.19 107.5 100.845 109.727C99.5135 111.943 97.5743 114.059 95.0275 116.075L92.747 117.88L72.7378 92.5995L77.8835 88.5267L91.7064 105.991C92.9018 105.045 93.7552 103.947 94.2664 102.697C94.7776 101.447 94.9279 100.155 94.7175 98.8208C94.5303 97.4895 93.9585 96.2196 93.002 95.0112C92.0044 93.7507 90.8275 92.8646 89.4714 92.3529C88.1386 91.8438 86.7689 91.7021 85.3623 91.9277C83.9688 92.143 82.6756 92.7121 81.4829 93.6351L76.5905 97.5073C75.1092 98.6798 74.0452 99.9657 73.3987 101.365C72.7624 102.778 72.553 104.222 72.7704 105.698C72.9879 107.175 73.6469 108.608 74.7474 109.998C75.4776 110.921 76.2761 111.663 77.1428 112.224C78.0094 112.785 78.9187 113.132 79.8704 113.267C80.8221 113.401 81.788 113.313 82.7679 113.002L88.3395 121.083C86.1857 122.154 83.9419 122.63 81.608 122.512C79.2974 122.396 77.008 121.693 74.7397 120.403C72.4948 119.115 70.3952 117.237 68.4411 114.768Z" fill="white"/>
<path d="M91.1735 145.055L124.541 126.495L129.531 135.467L123.709 138.705L123.903 139.053C126.312 138.509 128.444 138.66 130.299 139.506C132.168 140.343 133.622 141.696 134.661 143.565C134.919 144.028 135.168 144.544 135.408 145.112C135.648 145.68 135.83 146.195 135.955 146.657L127.743 151.224C127.632 150.717 127.413 150.052 127.088 149.228C126.762 148.404 126.422 147.673 126.068 147.036C125.311 145.675 124.337 144.623 123.147 143.882C121.98 143.147 120.701 142.758 119.312 142.715C117.931 142.687 116.56 143.052 115.199 143.809L96.3211 154.309L91.1735 145.055Z" fill="white"/>
<path d="M152.391 184.598L144.993 187.521L136.543 166.137L143.94 163.213L152.391 184.598ZM154.367 164.706L158.258 174.555L125.153 187.637C124.244 187.996 123.589 188.415 123.19 188.894C122.807 189.366 122.612 189.888 122.607 190.461C122.608 191.048 122.739 191.674 123.001 192.336C123.183 192.799 123.405 193.246 123.664 193.678C123.94 194.104 124.149 194.431 124.293 194.659L117.576 199.104C117.227 198.672 116.776 198.048 116.222 197.233C115.653 196.425 115.093 195.39 114.541 194.129C113.511 191.792 113.005 189.587 113.022 187.513C113.046 185.454 113.626 183.63 114.762 182.041C115.898 180.451 117.633 179.204 119.966 178.3L154.367 164.706Z" fill="white"/>
<path d="M122.248 214.906L159.107 204.942L161.87 215.164L125.012 225.128L122.248 214.906ZM165.246 208.793C164.836 207.273 164.987 205.833 165.701 204.473C166.435 203.124 167.514 202.257 168.938 201.872C170.346 201.492 171.698 201.701 172.996 202.501C174.314 203.312 175.178 204.477 175.589 205.997C176 207.517 175.838 208.951 175.104 210.299C174.39 211.66 173.33 212.53 171.922 212.911C170.498 213.296 169.127 213.083 167.809 212.272C166.512 211.472 165.657 210.313 165.246 208.793Z" fill="white"/>
<path d="M169.99 256.761L162.127 257.963L158.566 234.668L166.429 233.466L169.99 256.761ZM129.501 244.568L169.972 238.381C172.708 237.963 175.058 238.148 177.023 238.938C178.99 239.743 180.567 241.011 181.753 242.741C182.94 244.471 183.715 246.523 184.078 248.899C184.323 250.504 184.424 251.989 184.382 253.353C184.341 254.734 184.273 255.767 184.176 256.453L176.028 255.787C176.096 255.358 176.141 254.831 176.163 254.207C176.188 253.6 176.153 252.985 176.057 252.363C175.822 250.823 175.298 249.805 174.484 249.309C173.687 248.811 172.65 248.659 171.372 248.854L131.098 255.011L129.501 244.568Z" fill="white"/>
<path d="M133.817 279.372L171.969 277.868L172.386 288.45L134.234 289.953L133.817 279.372ZM177.096 282.99C177.035 281.417 177.503 280.047 178.502 278.88C179.518 277.728 180.763 277.124 182.237 277.066C183.694 277.008 184.966 277.514 186.053 278.582C187.157 279.666 187.74 280.995 187.802 282.568C187.864 284.141 187.387 285.503 186.371 286.655C185.372 287.822 184.144 288.434 182.687 288.491C181.213 288.55 179.924 288.036 178.82 286.952C177.733 285.884 177.158 284.563 177.096 282.99Z" fill="white"/>
<path d="M132.423 324.774C132.822 320.884 133.989 317.621 135.925 314.988C137.875 312.372 140.403 310.466 143.507 309.268C146.61 308.087 150.082 307.693 153.924 308.086C157.814 308.485 161.15 309.585 163.931 311.385C166.726 313.205 168.805 315.592 170.169 318.547C171.548 321.503 172.041 324.902 171.648 328.743C171.308 332.057 170.409 334.897 168.951 337.263C167.492 339.629 165.6 341.426 163.276 342.653C160.951 343.881 158.314 344.419 155.364 344.267L156.383 334.326C158.307 334.24 159.908 333.654 161.185 332.569C162.477 331.502 163.222 330.004 163.42 328.075C163.587 326.443 163.288 324.971 162.523 323.66C161.773 322.367 160.591 321.297 158.979 320.449C157.367 319.6 155.365 319.054 152.975 318.809C150.551 318.561 148.457 318.679 146.691 319.165C144.924 319.666 143.533 320.482 142.518 321.611C141.502 322.739 140.911 324.12 140.744 325.752C140.621 326.955 140.757 328.06 141.154 329.067C141.549 330.09 142.184 330.964 143.06 331.686C143.95 332.427 145.052 332.965 146.368 333.3L145.349 343.24C142.464 342.778 139.99 341.725 137.926 340.081C135.877 338.455 134.361 336.342 133.378 333.743C132.395 331.143 132.077 328.154 132.423 324.774Z" fill="white"/>
<path d="M124.327 372.085C125.02 369.749 126.044 367.789 127.397 366.203C128.766 364.621 130.41 363.537 132.331 362.949C134.263 362.382 136.436 362.457 138.851 363.175C140.884 363.779 142.481 364.66 143.641 365.817C144.801 366.974 145.611 368.321 146.071 369.858C146.531 371.395 146.732 373.045 146.674 374.809C146.613 376.589 146.4 378.41 146.037 380.273C145.626 382.467 145.323 384.244 145.127 385.604C144.946 386.968 144.967 388.002 145.19 388.708C145.412 389.414 145.913 389.883 146.691 390.114L146.834 390.156C148.343 390.605 149.652 390.475 150.762 389.767C151.866 389.076 152.676 387.864 153.19 386.132C153.733 384.305 153.76 382.732 153.271 381.411C152.797 380.094 152.009 379.082 150.905 378.374L154.457 369.212C156.54 370.35 158.183 371.858 159.388 373.737C160.609 375.621 161.328 377.797 161.546 380.265C161.775 382.753 161.455 385.459 160.587 388.382C159.982 390.415 159.166 392.29 158.137 394.007C157.104 395.74 155.872 397.181 154.441 398.329C153.006 399.493 151.377 400.263 149.555 400.637C147.748 401.017 145.756 400.883 143.58 400.236L118.893 392.901L121.754 383.275L126.829 384.783L126.914 384.497C125.945 383.569 125.17 382.483 124.589 381.239C124.024 379.999 123.7 378.615 123.618 377.087C123.552 375.563 123.789 373.896 124.327 372.085ZM130.468 377.073C130.025 378.566 129.927 379.972 130.175 381.291C130.439 382.614 130.982 383.752 131.805 384.705C132.628 385.659 133.683 386.327 134.97 386.709L138.854 387.863C138.742 387.484 138.681 386.99 138.672 386.383C138.673 385.795 138.704 385.139 138.764 384.413C138.84 383.692 138.924 382.974 139.016 382.258C139.123 381.546 139.22 380.901 139.306 380.321C139.485 379.078 139.516 377.955 139.399 376.952C139.282 375.949 138.971 375.105 138.466 374.419C137.977 373.737 137.256 373.255 136.303 372.972C134.921 372.561 133.716 372.748 132.688 373.532C131.671 374.336 130.931 375.516 130.468 377.073Z" fill="white"/>
<path d="M136.666 448.314L129.491 444.88L139.417 424.139L146.592 427.573L136.666 448.314ZM152.59 436.231L148.019 445.783L115.91 430.416C115.028 429.994 114.276 429.8 113.654 429.833C113.047 429.873 112.532 430.086 112.108 430.471C111.678 430.871 111.309 431.393 111.001 432.036C110.787 432.484 110.609 432.95 110.47 433.435C110.345 433.926 110.247 434.302 110.178 434.563L102.351 432.663C102.43 432.113 102.58 431.358 102.801 430.398C103.007 429.431 103.384 428.317 103.933 427.054C104.945 424.709 106.217 422.838 107.749 421.44C109.275 420.057 111.006 419.242 112.944 418.993C114.882 418.745 116.975 419.168 119.225 420.263L152.59 436.231Z" fill="white"/>
<path d="M93.9444 446.836L126.321 467.075L120.708 476.054L88.3314 455.816L93.9444 446.836ZM127.675 474.195C128.509 472.86 129.668 471.991 131.151 471.589C132.639 471.209 134.008 471.411 135.258 472.193C136.495 472.966 137.262 474.099 137.559 475.594C137.861 477.112 137.594 478.538 136.76 479.873C135.925 481.208 134.764 482.066 133.276 482.445C131.794 482.847 130.434 482.662 129.197 481.889C127.947 481.107 127.17 479.957 126.868 478.439C126.572 476.944 126.84 475.529 127.675 474.195Z" fill="white"/>
<path d="M67.2349 483.593C69.7357 480.651 72.5235 478.638 75.5982 477.555C78.6748 476.494 81.8306 476.338 85.0655 477.087C88.3131 477.847 91.4268 479.493 94.4066 482.026C97.4117 484.581 99.5443 487.394 100.804 490.466C102.077 493.549 102.431 496.689 101.867 499.885C101.305 503.105 99.7739 506.186 97.273 509.128C94.7721 512.07 91.9834 514.071 88.9068 515.132C85.8321 516.216 82.671 516.378 79.4234 515.618C76.1884 514.869 73.0684 513.217 70.0634 510.663C67.0835 508.13 64.9573 505.322 63.6846 502.239C62.4246 499.167 62.0756 496.021 62.6377 492.801C63.2016 489.604 64.734 486.535 67.2349 483.593ZM73.4527 488.944C72.315 490.283 71.7439 491.722 71.7394 493.262C71.7475 494.814 72.2213 496.38 73.1606 497.962C74.0893 499.556 75.3996 501.072 77.0915 502.51C78.7834 503.949 80.4908 504.998 82.2137 505.657C83.9259 506.33 85.5481 506.545 87.0804 506.304C88.6127 506.062 89.9477 505.272 91.0854 503.933C92.2339 502.582 92.8148 501.119 92.8281 499.542C92.8307 497.978 92.3677 496.399 91.4391 494.805C90.4997 493.224 89.1841 491.714 87.4921 490.275C85.8002 488.837 84.0981 487.782 82.386 487.109C80.6631 486.449 79.0301 486.247 77.4871 486.501C75.946 486.779 74.6012 487.593 73.4527 488.944Z" fill="white"/>
<path d="M46.3759 537.532L32.6798 520.221L40.9845 513.651L64.675 543.594L56.7603 549.856L52.5805 544.573L52.2296 544.851C52.9446 547.117 52.9234 549.373 52.1658 551.621C51.4186 553.881 49.9338 555.891 47.7114 557.649C45.632 559.294 43.4591 560.274 41.1928 560.588C38.9265 560.902 36.6961 560.553 34.5016 559.542C32.3175 558.544 30.3051 556.882 28.4646 554.556L13.3803 535.49L21.685 528.92L35.597 546.504C37.0338 548.347 38.6327 549.406 40.3938 549.682C42.1651 549.971 43.8825 549.458 45.546 548.142C46.6637 547.257 47.4612 546.235 47.9385 545.076C48.4028 543.927 48.5104 542.7 48.2612 541.397C48.0093 540.117 47.3809 538.829 46.3759 537.532Z" fill="white"/>
<path d="M17.9091 111.073L7 111.073L7 109.081L13.8661 104.335L13.8661 104.255L7 104.255L7 101.948L17.9091 101.948L17.9091 103.972L11.0483 108.681L11.0483 108.777L17.9091 108.777L17.9091 111.073ZM7 114.859L7 112.387L17.9091 116.153L17.9091 119.125L7 122.886L7 120.415L15.4162 117.682L15.4162 117.597L7 114.859ZM11.288 114.704L11.288 120.542L9.48757 120.542L9.48757 114.704L11.288 114.704ZM16.0075 122.451L17.9091 122.451L17.9091 131.41L16.0075 131.41L16.0075 128.07L7 128.07L7 125.79L16.0075 125.79L16.0075 122.451ZM17.9091 135.192L7 135.192L7 132.886L17.9091 132.886L17.9091 135.192ZM12.4545 147.115C11.2649 147.115 10.2528 146.889 9.41832 146.438C8.5838 145.991 7.94638 145.38 7.50604 144.606C7.06925 143.835 6.85085 142.969 6.85085 142.006C6.85085 141.037 7.07102 140.167 7.51136 139.396C7.9517 138.626 8.58913 138.017 9.42365 137.569C10.2582 137.122 11.2685 136.898 12.4545 136.898C13.6442 136.898 14.6562 137.122 15.4908 137.569C16.3253 138.017 16.9609 138.626 17.3977 139.396C17.8381 140.167 18.0582 141.037 18.0582 142.006C18.0582 142.969 17.8381 143.835 17.3977 144.606C16.9609 145.38 16.3253 145.991 15.4908 146.438C14.6562 146.889 13.6442 147.115 12.4545 147.115ZM12.4545 144.776C13.2251 144.776 13.875 144.661 14.4041 144.43C14.9332 144.203 15.3345 143.881 15.608 143.466C15.8814 143.05 16.0181 142.564 16.0181 142.006C16.0181 141.449 15.8814 140.962 15.608 140.547C15.3345 140.131 14.9332 139.808 14.4041 139.577C13.875 139.35 13.2251 139.236 12.4545 139.236C11.6839 139.236 11.0341 139.35 10.505 139.577C9.97585 139.808 9.57457 140.131 9.30113 140.547C9.0277 140.962 8.89098 141.449 8.89098 142.006C8.89098 142.564 9.0277 143.05 9.30113 143.466C9.57457 143.881 9.97585 144.203 10.505 144.43C11.0341 144.661 11.6839 144.776 12.4545 144.776ZM17.9091 157.948L7 157.948L7 155.956L13.8661 151.21L13.8661 151.13L7 151.13L7 148.823L17.9091 148.823L17.9091 150.847L11.0483 155.556L11.0483 155.652L17.9091 155.652L17.9091 157.948ZM7 161.734L7 159.262L17.9091 163.028L17.9091 166L7 169.761L7 167.29L15.4162 164.557L15.4162 164.472L7 161.734ZM11.288 161.579L11.288 167.417L9.48757 167.417L9.48757 161.579L11.288 161.579ZM7 171.074L17.9091 171.074L17.9091 173.381L8.90163 173.381L8.90163 178.057L7 178.057L7 171.074ZM6.8402 186.359C6.8402 185.606 6.97514 184.956 7.24502 184.41C7.51491 183.863 7.88068 183.442 8.34233 183.147C8.80752 182.856 9.32599 182.71 9.89772 182.71C10.3239 182.71 10.7021 182.796 11.0323 182.966C11.3626 183.136 11.6662 183.374 11.9432 183.68C12.2237 183.985 12.5025 184.34 12.7795 184.745L14.1697 186.86C14.3437 187.133 14.5266 187.334 14.7184 187.462C14.9137 187.59 15.125 187.653 15.3523 187.653C15.5689 187.653 15.7695 187.566 15.9542 187.392C16.1388 187.218 16.2294 186.972 16.2258 186.652C16.2258 186.439 16.1779 186.254 16.082 186.098C15.9897 185.942 15.8672 185.819 15.7145 185.731C15.5653 185.645 15.3984 185.603 15.2138 185.603C14.9865 185.603 14.7557 185.667 14.5213 185.794C14.2869 185.922 14.0383 186.093 13.7756 186.306C13.5163 186.519 13.2358 186.752 12.9339 187.004L7 192.176L7 189.811L11.8047 185.496C12.1278 185.212 12.4652 184.928 12.8168 184.644C13.1719 184.363 13.5483 184.129 13.946 183.941C14.3473 183.753 14.7823 183.658 15.2511 183.658C15.7802 183.658 16.256 183.781 16.6786 184.026C17.1012 184.275 17.435 184.623 17.68 185.07C17.9286 185.517 18.0529 186.04 18.0529 186.636C18.0529 187.218 17.9339 187.721 17.696 188.144C17.4616 188.57 17.1491 188.896 16.7585 189.124C16.3714 189.354 15.9453 189.47 15.4801 189.47C14.9652 189.47 14.4982 189.342 14.0792 189.086C13.6637 188.834 13.2908 188.479 12.9606 188.021L11.3572 185.794C11.1371 185.493 10.9116 185.269 10.6807 185.123C10.4535 184.981 10.2351 184.91 10.0256 184.91C9.76633 184.91 9.53373 184.974 9.32777 185.102C9.1218 185.23 8.95845 185.411 8.83771 185.645C8.72052 185.88 8.66193 186.155 8.66193 186.471C8.66193 186.854 8.74893 187.233 8.92294 187.606C9.10049 187.982 9.35085 188.323 9.674 188.628C10.0007 188.937 10.3878 189.184 10.8352 189.369C11.2827 189.553 11.7781 189.646 12.3214 189.646L12.3214 191.526C11.6538 191.526 11.0518 191.453 10.5156 191.308C9.98295 191.162 9.51775 190.96 9.12002 190.7C8.72585 190.441 8.4027 190.145 8.15056 189.811C8.08309 189.704 8.01917 189.601 7.9588 189.502C7.89843 189.402 7.83451 189.299 7.76704 189.193C7.44034 188.788 7.20419 188.335 7.05859 187.835C6.91299 187.337 6.8402 186.846 6.8402 186.359ZM17.9091 205.76L7 205.76L7 203.768L13.8661 199.022L13.8661 198.942L7 198.942L7 196.636L17.9091 196.636L17.9091 198.66L11.0483 203.369L11.0483 203.464L17.9091 203.464L17.9091 205.76ZM7 209.546L7 207.075L17.9091 210.841L17.9091 213.813L6.99999 217.574L7 215.102L15.4162 212.369L15.4162 212.284L7 209.546ZM11.288 209.392L11.288 215.23L9.48757 215.23L9.48757 209.392L11.288 209.392ZM16.0075 217.138L17.9091 217.138L17.9091 226.098L16.0075 226.098L16.0075 222.758L6.99999 222.758L6.99999 220.478L16.0075 220.478L16.0075 217.138ZM17.9091 229.88L6.99999 229.88L6.99999 227.573L17.9091 227.573L17.9091 229.88ZM12.4545 241.802C11.2649 241.802 10.2528 241.577 9.41832 241.126C8.5838 240.678 7.94637 240.067 7.50603 239.293C7.06924 238.523 6.85085 237.656 6.85085 236.694C6.85085 235.724 7.07102 234.854 7.51136 234.084C7.9517 233.313 8.58913 232.704 9.42364 232.257C10.2582 231.809 11.2685 231.585 12.4545 231.585C13.6442 231.585 14.6562 231.809 15.4908 232.257C16.3253 232.704 16.9609 233.313 17.3977 234.084C17.8381 234.854 18.0582 235.724 18.0582 236.694C18.0582 237.656 17.8381 238.523 17.3977 239.293C16.9609 240.067 16.3253 240.678 15.4908 241.126C14.6562 241.577 13.6442 241.802 12.4545 241.802ZM12.4545 239.464C13.2251 239.464 13.875 239.348 14.4041 239.117C14.9332 238.89 15.3345 238.569 15.6079 238.153C15.8814 237.738 16.0181 237.251 16.0181 236.694C16.0181 236.136 15.8814 235.65 15.6079 235.234C15.3345 234.819 14.9332 234.496 14.4041 234.265C13.875 234.038 13.2251 233.924 12.4545 233.924C11.6839 233.924 11.0341 234.038 10.505 234.265C9.97585 234.496 9.57457 234.819 9.30113 235.234C9.02769 235.65 8.89097 236.136 8.89097 236.694C8.89097 237.251 9.02769 237.738 9.30113 238.153C9.57457 238.569 9.97585 238.89 10.505 239.117C11.0341 239.348 11.6839 239.464 12.4545 239.464ZM17.9091 252.635L6.99999 252.635L6.99999 250.643L13.8661 245.897L13.8661 245.817L6.99999 245.817L6.99999 243.511L17.9091 243.511L17.9091 245.535L11.0483 250.244L11.0483 250.339L17.9091 250.339L17.9091 252.635ZM6.99999 256.421L6.99999 253.95L17.9091 257.716L17.9091 260.688L6.99999 264.449L6.99999 261.977L15.4162 259.244L15.4162 259.159L6.99999 256.421ZM11.288 256.267L11.288 262.105L9.48756 262.105L9.48756 256.267L11.288 256.267ZM6.99999 265.762L17.9091 265.762L17.9091 268.068L8.90163 268.068L8.90163 272.745L6.99999 272.745L6.99999 265.762ZM16.0075 277.329L17.9091 277.329L17.9091 286.288L16.0074 286.288L16.0074 282.948L6.99999 282.948L6.99999 280.668L16.0074 280.668L16.0075 277.329ZM6.99999 287.764L17.9091 287.764L17.9091 295.114L16.0074 295.114L16.0074 290.07L13.408 290.07L13.408 294.736L11.5064 294.736L11.5064 290.07L8.90163 290.07L8.90163 295.136L6.99999 295.136L6.99999 287.764ZM14.0898 306.574L14.0898 304.24C14.3917 304.198 14.6598 304.111 14.8942 303.979C15.1321 303.848 15.3345 303.679 15.5014 303.473C15.6683 303.267 15.7962 303.029 15.8849 302.76C15.9737 302.493 16.0181 302.204 16.0181 301.891C16.0181 301.327 15.8778 300.835 15.5973 300.416C15.3203 299.997 14.9155 299.672 14.3828 299.441C13.8537 299.21 13.2109 299.095 12.4545 299.095C11.6768 299.095 11.0234 299.21 10.4943 299.441C9.96519 299.675 9.56569 300.002 9.2958 300.421C9.02591 300.84 8.89097 301.325 8.89097 301.875C8.89097 302.184 8.93181 302.47 9.01349 302.733C9.09516 302.999 9.21412 303.235 9.37037 303.441C9.53018 303.647 9.72371 303.818 9.95099 303.953C10.1783 304.091 10.4375 304.187 10.7287 304.24L10.718 306.574C10.2173 306.513 9.73437 306.362 9.26917 306.121C8.80752 305.883 8.39381 305.561 8.02805 305.157C7.66583 304.755 7.37819 304.276 7.16512 303.718C6.9556 303.164 6.85084 302.538 6.85084 301.838C6.85084 300.865 7.07101 299.995 7.51135 299.228C7.9517 298.464 8.58912 297.861 9.42364 297.417C10.2582 296.977 11.2685 296.756 12.4545 296.756C13.6442 296.756 14.6562 296.98 15.4908 297.428C16.3253 297.875 16.9609 298.482 17.3977 299.249C17.8381 300.016 18.0582 300.879 18.0582 301.838C18.0582 302.47 17.9695 303.056 17.7919 303.596C17.6143 304.139 17.3551 304.62 17.0142 305.039C16.6768 305.458 16.2631 305.799 15.7731 306.062C15.283 306.328 14.7219 306.499 14.0898 306.574ZM6.99999 308.227L17.9091 308.227L17.9091 310.534L13.408 310.534L13.408 315.216L17.9091 315.216L17.9091 317.517L6.99999 317.517L6.99999 315.216L11.5064 315.216L11.5064 310.534L6.99999 310.534L6.99999 308.227ZM17.9091 328.544L6.99999 328.544L6.99999 326.551L13.8661 321.805L13.8661 321.725L6.99999 321.725L6.99999 319.419L17.9091 319.419L17.9091 321.443L11.0483 326.152L11.0483 326.248L17.9091 326.248L17.9091 328.544ZM17.9091 332.756L6.99999 332.756L6.99999 330.449L17.9091 330.449L17.9091 332.756ZM14.0898 344.279L14.0898 341.945C14.3917 341.903 14.6598 341.816 14.8942 341.684C15.1321 341.553 15.3345 341.384 15.5014 341.178C15.6683 340.972 15.7962 340.735 15.8849 340.465C15.9737 340.198 16.0181 339.909 16.0181 339.596C16.0181 339.032 15.8778 338.54 15.5973 338.121C15.3203 337.702 14.9155 337.377 14.3828 337.146C13.8537 336.915 13.2109 336.8 12.4545 336.8C11.6768 336.8 11.0234 336.915 10.4943 337.146C9.96519 337.381 9.56569 337.707 9.2958 338.126C9.02591 338.545 8.89097 339.03 8.89097 339.58C8.89097 339.889 8.93181 340.175 9.01348 340.438C9.09516 340.704 9.21412 340.941 9.37037 341.146C9.53017 341.352 9.72371 341.523 9.95098 341.658C10.1783 341.796 10.4375 341.892 10.7287 341.945L10.718 344.279C10.2173 344.218 9.73436 344.067 9.26917 343.826C8.80752 343.588 8.39381 343.267 8.02804 342.862C7.66583 342.46 7.37819 341.981 7.16512 341.423C6.9556 340.869 6.85084 340.243 6.85084 339.543C6.85084 338.57 7.07101 337.7 7.51135 336.933C7.95169 336.17 8.58912 335.566 9.42364 335.122C10.2582 334.682 11.2685 334.461 12.4545 334.461C13.6442 334.461 14.6562 334.685 15.4908 335.133C16.3253 335.58 16.9609 336.187 17.3977 336.954C17.8381 337.721 18.0582 338.584 18.0582 339.543C18.0582 340.175 17.9695 340.761 17.7919 341.301C17.6143 341.844 17.3551 342.325 17.0142 342.744C16.6768 343.164 16.2631 343.504 15.7731 343.767C15.283 344.034 14.7219 344.204 14.0898 344.279ZM6.99999 347.608L6.99999 345.136L17.9091 348.902L17.9091 351.874L6.99999 355.635L6.99999 353.164L15.4162 350.431L15.4162 350.346L6.99999 347.608ZM11.288 347.453L11.288 353.291L9.48756 353.291L9.48756 347.453L11.288 347.453ZM6.99999 356.948L17.9091 356.948L17.9091 359.255L8.90162 359.255L8.90162 363.931L6.99999 363.931L6.99999 356.948ZM10.7926 373.048L10.7926 375.008L9.52485 375.994L8.39558 376.963L6.1051 378.79L6.1051 376.638L7.64985 375.381L8.56604 374.737L10.7926 373.048ZM12.4545 378.955C11.2649 378.955 10.2528 378.73 9.41831 378.279C8.58379 377.831 7.94637 377.221 7.50602 376.447C7.06924 375.676 6.85084 374.809 6.85084 373.847C6.85084 372.878 7.07101 372.008 7.51135 371.237C7.95169 370.466 8.58912 369.857 9.42364 369.41C10.2582 368.963 11.2685 368.739 12.4545 368.739C13.6442 368.739 14.6562 368.963 15.4908 369.41C16.3253 369.857 16.9609 370.466 17.3977 371.237C17.8381 372.008 18.0582 372.878 18.0582 373.847C18.0582 374.809 17.8381 375.676 17.3977 376.447C16.9609 377.221 16.3253 377.831 15.4908 378.279C14.6562 378.73 13.6442 378.955 12.4545 378.955ZM12.4545 376.617C13.2251 376.617 13.875 376.502 14.4041 376.271C14.9332 376.044 15.3345 375.722 15.6079 375.307C15.8814 374.891 16.0181 374.405 16.0181 373.847C16.0181 373.29 15.8814 372.803 15.6079 372.388C15.3345 371.972 14.9332 371.649 14.4041 371.418C13.875 371.191 13.2251 371.077 12.4545 371.077C11.6839 371.077 11.0341 371.191 10.505 371.418C9.97584 371.649 9.57456 371.972 9.30112 372.388C9.02769 372.803 8.89097 373.29 8.89097 373.847C8.89097 374.405 9.02769 374.891 9.30112 375.307C9.57456 375.722 9.97584 376.044 10.505 376.271C11.0341 376.502 11.6839 376.617 12.4545 376.617ZM17.9091 387.402L17.9091 389.709L10.8246 389.709C10.0291 389.709 9.33308 389.519 8.73649 389.139C8.1399 388.762 7.6747 388.235 7.3409 387.557C7.01064 386.878 6.84551 386.088 6.84551 385.186C6.84551 384.281 7.01064 383.489 7.3409 382.811C7.6747 382.132 8.1399 381.605 8.73649 381.229C9.33308 380.852 10.0291 380.664 10.8246 380.664L17.9091 380.664L17.9091 382.97L11.0216 382.97C10.6062 382.97 10.2368 383.061 9.9137 383.242C9.59054 383.427 9.33664 383.686 9.15198 384.02C8.96732 384.354 8.87499 384.742 8.87499 385.186C8.87499 385.634 8.96732 386.023 9.15198 386.353C9.33664 386.687 9.59054 386.944 9.9137 387.125C10.2368 387.31 10.6062 387.402 11.0216 387.402L17.9091 387.402ZM6.99999 393.487L6.99999 391.015L17.9091 394.781L17.9091 397.753L6.99999 401.514L6.99999 399.042L15.4162 396.31L15.4162 396.225L6.99999 393.487ZM11.288 393.332L11.288 399.17L9.48756 399.17L9.48756 393.332L11.288 393.332ZM6.99999 402.827L17.9091 402.827L17.9091 405.134L8.90162 405.134L8.90162 409.81L6.99999 409.81L6.99999 402.827ZM17.9091 413.644L6.99999 413.644L6.99999 411.338L17.9091 411.338L17.9091 413.644ZM6.99999 415.542L17.9091 415.542L17.9091 422.765L16.0074 422.765L16.0074 417.848L13.408 417.848L13.408 422.286L11.5064 422.286L11.5064 417.848L6.99999 417.848L6.99999 415.542ZM17.9091 426.623L6.99999 426.623L6.99999 424.316L17.9091 424.316L17.9091 426.623ZM14.0898 438.146L14.0898 435.813C14.3917 435.77 14.6598 435.683 14.8942 435.552C15.1321 435.42 15.3345 435.252 15.5014 435.046C15.6683 434.84 15.7962 434.602 15.8849 434.332C15.9737 434.066 16.0181 433.776 16.0181 433.464C16.0181 432.899 15.8778 432.407 15.5973 431.988C15.3203 431.569 14.9155 431.244 14.3828 431.013C13.8537 430.782 13.2109 430.667 12.4545 430.667C11.6768 430.667 11.0234 430.782 10.4943 431.013C9.96518 431.248 9.56568 431.574 9.2958 431.993C9.02591 432.412 8.89097 432.897 8.89097 433.448C8.89097 433.757 8.9318 434.042 9.01348 434.305C9.09516 434.572 9.21412 434.808 9.37037 435.014C9.53017 435.22 9.72371 435.39 9.95098 435.525C10.1783 435.664 10.4375 435.759 10.7287 435.813L10.718 438.146C10.2173 438.085 9.73436 437.934 9.26916 437.693C8.80751 437.455 8.39381 437.134 8.02804 436.729C7.66582 436.328 7.37818 435.848 7.16511 435.291C6.9556 434.737 6.85084 434.11 6.85084 433.41C6.85084 432.437 7.07101 431.567 7.51135 430.8C7.95169 430.037 8.58912 429.433 9.42364 428.989C10.2582 428.549 11.2685 428.329 12.4545 428.329C13.6442 428.329 14.6562 428.552 15.4908 429C16.3253 429.447 16.9609 430.055 17.3977 430.822C17.8381 431.589 18.0582 432.452 18.0582 433.41C18.0582 434.042 17.9694 434.628 17.7919 435.168C17.6143 435.711 17.3551 436.193 17.0142 436.612C16.6768 437.031 16.2631 437.372 15.7731 437.634C15.283 437.901 14.7219 438.071 14.0898 438.146ZM6.99999 441.475L6.99999 439.003L17.9091 442.769L17.9091 445.742L6.99998 449.502L6.99998 447.031L15.4162 444.298L15.4162 444.213L6.99999 441.475ZM11.288 441.32L11.288 447.159L9.48756 447.159L9.48756 441.32L11.288 441.32ZM16.0074 449.067L17.9091 449.067L17.9091 458.026L16.0074 458.026L16.0074 454.687L6.99998 454.687L6.99998 452.407L16.0074 452.407L16.0074 449.067ZM17.9091 461.808L6.99998 461.808L6.99998 459.502L17.9091 459.502L17.9091 461.808ZM12.4545 473.731C11.2649 473.731 10.2528 473.505 9.41831 473.054C8.58379 472.607 7.94636 471.996 7.50602 471.222C7.06923 470.451 6.85084 469.585 6.85084 468.623C6.85084 467.653 7.07101 466.783 7.51135 466.012C7.95169 465.242 8.58912 464.633 9.42363 464.185C10.2582 463.738 11.2685 463.514 12.4545 463.514C13.6442 463.514 14.6562 463.738 15.4908 464.185C16.3253 464.633 16.9609 465.242 17.3977 466.012C17.8381 466.783 18.0582 467.653 18.0582 468.623C18.0582 469.585 17.8381 470.451 17.3977 471.222C16.9609 471.996 16.3253 472.607 15.4908 473.054C14.6562 473.505 13.6442 473.731 12.4545 473.731ZM12.4545 471.392C13.2251 471.392 13.875 471.277 14.4041 471.046C14.9332 470.819 15.3345 470.498 15.6079 470.082C15.8814 469.667 16.0181 469.18 16.0181 468.623C16.0181 468.065 15.8814 467.578 15.6079 467.163C15.3345 466.748 14.9332 466.424 14.4041 466.194C13.875 465.966 13.2251 465.853 12.4545 465.853C11.6839 465.853 11.0341 465.966 10.505 466.194C9.97584 466.424 9.57456 466.748 9.30112 467.163C9.02768 467.578 8.89096 468.065 8.89096 468.623C8.89096 469.18 9.02768 469.667 9.30112 470.082C9.57456 470.498 9.97584 470.819 10.505 471.046C11.0341 471.277 11.6839 471.392 12.4545 471.392ZM17.9091 484.564L6.99998 484.564L6.99998 482.572L13.8661 477.826L13.8661 477.746L6.99998 477.746L6.99998 475.439L17.9091 475.439L17.9091 477.464L11.0483 482.172L11.0483 482.268L17.9091 482.268L17.9091 484.564Z" fill="white"/>
</svg>
