<?xml version="1.0" encoding="utf-8"?>
<!-- Generator: Adobe Illustrator 25.3.1, SVG Export Plug-In . SVG Version: 6.00 Build 0)  -->
<svg version="1.1" id="Layer_1" xmlns="http://www.w3.org/2000/svg" xmlns:xlink="http://www.w3.org/1999/xlink" x="0px" y="0px"
	 viewBox="0 0 38.63 42.48" style="enable-background:new 0 0 38.63 42.48;" xml:space="preserve">
<style type="text/css">
	.st0{fill:#FFFFFF;}
</style>
<path class="st0" d="M37.64,27.57c-0.49-1.28-1.05-2.53-1.67-3.77c-0.62-1.24-1.2-2.38-1.72-3.42c-0.55-1.16-1.09-2.3-1.62-3.43
	c-0.53-1.13-1.01-2.18-1.42-3.16c-0.59-1.33-1.03-2.56-1.33-3.69c-0.29-1.13-0.36-2.03-0.21-2.71l-1.34,1.34
	c-0.74,0.74-1.26,1.4-1.56,1.98c-0.29,0.58-0.41,1.14-0.34,1.69c0.07,0.55,0.25,1.16,0.54,1.85c0.3,0.69,0.64,1.54,1.03,2.54
	c0.68,1.73,1.2,3.52,1.57,5.38c0.37,1.86,0.48,3.63,0.33,5.31c-0.09,1.14-0.31,1.88-0.66,2.23c-0.22,0.22-0.48,0.27-0.79,0.16
	c-0.31-0.11-0.63-0.34-0.98-0.69c-0.5-0.5-1.01-1.18-1.53-2.02c-0.51-0.84-0.93-1.6-1.26-2.28c-0.46-0.98-0.88-2.07-1.26-3.26
	c-0.38-1.19-0.68-2.33-0.9-3.43c-0.21-1.08-0.3-1.89-0.26-2.46c0.19-0.56,0.37-1.09,0.53-1.54c0.7-1.96,1.32-3.61,1.85-4.92
	c0.54-1.32,1.04-2.41,1.52-3.28c0.48-0.87,0.98-1.62,1.5-2.23s1.12-1.21,1.81-1.78c0.68-0.57,1.51-1.22,2.49-1.95L21.25,0h-2.23
	c-1.46,0-2.84,0.12-4.14,0.36s-2.47,0.9-3.52,1.97c-0.44,0.44-0.88,0.98-1.31,1.61C9.63,4.58,9.27,5.31,8.98,6.13
	c-0.06,0.19-0.1,0.33-0.1,0.43c0,0.45,0.14,0.67,0.43,0.67c0.1,0,0.16-0.05,0.19-0.14c0.29-0.82,0.98-1.58,2.07-2.26
	c1.09-0.68,2.39-1.27,3.88-1.78c1.49-0.51,2.95-0.87,4.37-1.09c0.32-0.06,2.47-0.14,3.14-0.14c0.79,0,1.59,0.03,2.4,0.07
	c0.81,0.05,1.47,0.15,1.97,0.31c-0.79,0.29-1.62,0.94-2.47,1.97C24,5.19,23.17,6.39,22.36,7.77c-0.81,1.38-1.54,2.75-2.19,4.11
	c-0.65,1.36-1.16,2.52-1.54,3.47c-0.22,0.6-0.57,1.45-1.04,2.54c-0.48,1.09-1.02,2.33-1.64,3.71c-0.62,1.38-1.3,2.79-2.05,4.23
	c-0.74,1.44-1.52,2.83-2.33,4.16c-0.81,1.33-1.61,2.49-2.4,3.47c-0.57,0.7-1.26,1.33-2.07,1.9c-0.81,0.57-1.69,0.85-2.64,0.85
	c-0.6,0-1.14-0.19-1.62-0.57c-0.47-0.38-0.71-1.06-0.71-2.04v-0.29c-0.57,0.06-1.01,0.31-1.33,0.74c-0.32,0.43-0.53,0.89-0.64,1.4
	C0.06,35.96,0,36.36,0,36.65c0,1.39,0.45,2.51,1.35,3.35c0.9,0.84,2.08,1.26,3.54,1.26c1.71,0,3.3-0.51,4.75-1.52
	c1.46-1.01,2.78-2.36,3.97-4.04c1.19-1.68,2.26-3.53,3.23-5.54c0.97-2.01,1.82-4.04,2.57-6.08c0.14-0.39,0.23-0.7,0.37-1.07
	c0.19,0.63,0.34,1.25,0.62,1.92c0.44,1.07,0.92,2.12,1.46,3.13c0.53,1.02,1.08,1.93,1.62,2.74c0.55,0.81,1.04,1.43,1.48,1.87
	c0.88,0.88,1.72,1.36,2.54,1.46c0.82,0.1,1.49-0.11,2.02-0.64c0.5-0.5,0.97-1.19,1.41-2.06c0.44-0.88,0.66-2.14,0.66-3.81
	c0-0.22-0.03-0.79-0.1-1.71c-0.06-0.92-0.14-1.81-0.23-2.69l3.11,6.85c0.39,0.87,0.79,1.91,1.18,3.11c0.39,1.2,0.49,2.41,0.29,3.61
	c-0.19,1.07-0.59,1.9-1.18,2.49c-0.46,0.46-0.96,0.71-1.51,0.75c-0.55,0.04-1.03-0.14-1.44-0.56c-0.33-0.33-0.57-0.72-0.72-1.18
	c-0.02-0.07-0.04-0.2-0.06-0.4c-0.02-0.19-0.02-0.33,0-0.39c-0.33-0.15-0.71-0.18-1.13-0.08c-0.43,0.1-0.79,0.3-1.1,0.61
	c-0.5,0.5-0.7,1.09-0.59,1.77c0.11,0.68,0.39,1.25,0.85,1.71c0.66,0.66,1.38,0.98,2.18,0.97c0.8-0.01,1.58-0.23,2.34-0.67
	c0.76-0.44,1.42-0.93,1.97-1.47c1.18-1.18,2.04-2.57,2.57-4.18c0.53-1.61,0.71-3.24,0.54-4.9C38.44,30.07,38.13,28.84,37.64,27.57z"
	/>
</svg>
