<?xml version="1.0" encoding="utf-8"?>
<!-- Generator: Adobe Illustrator 25.3.1, SVG Export Plug-In . SVG Version: 6.00 Build 0)  -->
<svg version="1.1" id="Layer_1" xmlns="http://www.w3.org/2000/svg" xmlns:xlink="http://www.w3.org/1999/xlink" x="0px" y="0px"
	 viewBox="0 0 96.11 72.19" style="enable-background:new 0 0 96.11 72.19;" xml:space="preserve">
<style type="text/css">
	.st0{fill:none;stroke:#000000;stroke-miterlimit:10;}
</style>
<text transform="matrix(1 0 0 1 -27.0213 4.4999)" style="font-family:'Playball-Regular'; font-size:9.0181px;">j</text>
<text transform="matrix(1 0 0 1 -28.5949 6.6282)" style="font-family:'Playball-Regular'; font-size:12px;">Y</text>
<g>
	<path d="M34.19,24.34c-1.06,0.5-1.88,1.29-2.45,2.41c-0.57,1.11-1.24,2.6-2.02,4.46c-1.66,4.09-3.2,8.41-4.62,12.96
		c-1.42,4.56-3.04,8.98-4.85,13.28c-0.78,1.81-1.68,3.67-2.72,5.59c-1.03,1.92-2.38,3.52-4.03,4.81c-0.88,0.67-1.75,1.18-2.6,1.52
		c-0.85,0.34-1.64,0.5-2.37,0.5c-0.88,0-1.61-0.24-2.17-0.7c-0.57-0.46-0.85-1.11-0.85-1.94c0-0.73,0.23-1.55,0.7-2.48
		c0.11-0.16,0.26-0.38,0.47-0.66c0.21-0.29,0.36-0.45,0.46-0.5c-0.46-1.09-1.4-1.63-2.79-1.63c-0.1,0-0.23,0-0.39,0
		c-0.16,0-0.28,0.03-0.39,0.08c-1.19,0.31-2.08,1.01-2.68,2.1C0.3,65.2,0,66.27,0,67.3c0,1.86,0.73,3.14,2.17,3.84
		c1.45,0.7,3.03,1.05,4.74,1.05c0.26,0,0.54,0,0.85,0c0.31,0,0.6-0.03,0.85-0.08c3.62-0.41,6.73-1.58,9.32-3.49
		c2.58-1.92,4.79-4.27,6.59-7.06c1.81-2.79,3.32-5.7,4.54-8.73c1.21-3.03,2.29-5.81,3.22-8.35c0.78-2.12,1.49-4.15,2.13-6.09
		c0.65-1.94,1.31-3.74,1.98-5.39c0.88-2.28,1.81-4.26,2.79-5.94c0.98-1.68,1.97-2.83,2.95-3.45h-3.11
		C36.87,23.61,35.25,23.85,34.19,24.34z"/>
	<path d="M63.67,15.46c-0.57-0.52-1.29-0.78-2.17-0.78c-0.21,0-0.4,0-0.58,0c-0.18,0-0.4,0.05-0.66,0.16
		c-1.14,0.36-2.19,1.18-3.14,2.45c-0.96,1.26-1.44,2.5-1.44,3.68c0,0.91,0.77,2.58,1.92,2.34c0.43-0.09,0.71-0.5,0.95-0.87
		c1.02-1.59,2.26-2.34,4.06-2.83c1.14-0.31,1.92-1.13,1.92-2.37C64.53,16.57,64.24,15.97,63.67,15.46z"/>
	<g>
		<path d="M38.59,72.19c0.55-2.48,1.31-5.18,2.27-8.11c0.97-2.92,2-5.97,3.1-9.14c1.58-4.13,2.38-7.88,2.38-11.26
			c0-0.34,0-0.71,0-1.08s-0.04-0.74-0.11-1.08c-0.41-2.96-1.17-6.27-2.27-9.91c-1.1-3.65-2.31-7.23-3.61-10.74
			c-1.31-3.44-2.79-6.4-4.44-8.88c-1.66-2.48-3.65-3.72-5.99-3.72c-1.45,0-3.05,0.62-4.8,1.86c-1.75,1.24-3.74,3.3-5.94,6.19
			c-0.07,0.07-0.14,0.11-0.21,0.11c-0.21,0-0.34-0.24-0.41-0.72c-0.07-0.48-0.07-0.83,0-1.03c1.51-3.03,3.11-5.64,4.8-7.85
			c1.69-2.2,3.71-3.87,6.09-5.01c2.37-1.13,5.35-1.6,8.93-1.39c3.45,0.14,5.99,1.45,7.65,3.93c1.65,2.48,3.13,5.85,4.44,10.12
			c1.03,3.58,2.1,7.42,3.2,11.51c1.1,4.1,2.1,7.9,2.99,11.41c2.62-3.58,5.4-7.51,8.37-11.78c2.96-4.27,5.9-8.47,8.83-12.6
			c2.93-4.13,5.56-7.75,7.9-10.85c0.76-0.96,1.93-1.56,3.51-1.81C86.86,0.12,88.5,0,90.23,0c1.1,0,2.17,0.02,3.2,0.05
			s1.92,0.05,2.68,0.05c-3.03,2.13-6.3,4.82-9.81,8.06S79.32,15.01,75.87,19c-3.03,3.51-6.13,7.68-9.3,12.5
			c-3.17,4.82-6.03,10-8.57,15.54c-2.55,5.54-4.44,11.17-5.68,16.89c-0.27,1.17-0.48,2.26-0.61,3.25c-0.14,1-0.21,1.88-0.21,2.63
			c0,1.1,0.13,1.9,0.41,2.37H38.59z"/>
	</g>
</g>
<text transform="matrix(1 0 0 1 -25.3566 45.3337)" style="font-family:'Playball-Regular'; font-size:9.0181px;">j</text>
<text transform="matrix(1 0 0 1 -30.9261 47.4622)" style="font-family:'Playball-Regular'; font-size:12px;">Y</text>
<text transform="matrix(1 0 0 1 -28.34 24.4552)" style="font-family:'Playball-Regular'; font-size:9.0181px;">J</text>
<text transform="matrix(6.123234e-17 1 -1 6.123234e-17 -27.8078 19.6768)" style="font-family:'Playball-Regular'; font-size:12px;">y</text>
<g>
	<text transform="matrix(1.0134 0 0 1 -15.8135 79.5795)" style="font-family:'FreestyleScript-Regular'; font-size:11.8413px;">j</text>
	<g>
		<path d="M-19.42,79.18l0.12-0.24l0.36-0.75c0.49-1.04,0.81-1.69,0.96-1.95c0.23-0.4,0.44-0.61,0.62-0.61
			c0.06,0,0.11,0.02,0.16,0.07c0.05,0.05,0.07,0.1,0.07,0.14c0,0.07-0.12,0.27-0.35,0.6c-0.14,0.21-0.36,0.59-0.65,1.15
			c-0.23,0.46-0.4,0.82-0.5,1.08c0.3-0.2,0.54-0.39,0.73-0.58c0.22-0.22,0.44-0.49,0.65-0.81c0.1-0.15,0.19-0.22,0.26-0.22
			c0.04,0,0.08,0.02,0.11,0.05c0.04,0.04,0.05,0.08,0.05,0.13c0,0.13-0.08,0.31-0.25,0.54c-0.4,0.57-1.04,1.1-1.9,1.59
			c-0.08,0.13-0.21,0.4-0.39,0.8c-0.32,0.71-0.64,1.28-0.97,1.72c-0.18,0.24-0.4,0.43-0.66,0.58c-0.17,0.1-0.35,0.15-0.54,0.15
			c-0.22,0-0.4-0.08-0.55-0.25c-0.09-0.11-0.14-0.24-0.14-0.4c0-0.4,0.21-0.85,0.63-1.34C-21.09,80.04-20.37,79.55-19.42,79.18z
			 M-19.74,79.79c-0.37,0.14-0.76,0.41-1.18,0.81c-0.49,0.46-0.74,0.86-0.74,1.2c0,0.08,0.02,0.14,0.06,0.18
			c0.04,0.04,0.1,0.06,0.17,0.06c0.16,0,0.34-0.09,0.52-0.27C-20.61,81.48-20.22,80.82-19.74,79.79z"/>
	</g>
	<g>
		<path d="M-22.62,79.18l0.12-0.24l0.36-0.75c0.49-1.04,0.81-1.69,0.96-1.95c0.23-0.4,0.44-0.61,0.62-0.61
			c0.06,0,0.11,0.02,0.16,0.07c0.05,0.05,0.07,0.1,0.07,0.14c0,0.07-0.12,0.27-0.35,0.6c-0.14,0.21-0.36,0.59-0.65,1.15
			c-0.23,0.46-0.4,0.82-0.5,1.08c0.3-0.2,0.54-0.39,0.73-0.58c0.22-0.22,0.44-0.49,0.65-0.81c0.1-0.15,0.19-0.22,0.26-0.22
			c0.04,0,0.08,0.02,0.11,0.05c0.04,0.04,0.05,0.08,0.05,0.13c0,0.13-0.08,0.31-0.25,0.54c-0.4,0.57-1.04,1.1-1.9,1.59
			c-0.08,0.13-0.21,0.4-0.39,0.8c-0.32,0.71-0.64,1.28-0.97,1.72c-0.18,0.24-0.4,0.43-0.66,0.58c-0.17,0.1-0.35,0.15-0.54,0.15
			c-0.22,0-0.4-0.08-0.55-0.25c-0.09-0.11-0.14-0.24-0.14-0.4c0-0.4,0.21-0.85,0.63-1.34C-24.3,80.04-23.57,79.55-22.62,79.18z
			 M-22.95,79.79c-0.37,0.14-0.76,0.41-1.18,0.81c-0.49,0.46-0.74,0.86-0.74,1.2c0,0.08,0.02,0.14,0.06,0.18
			c0.04,0.04,0.1,0.06,0.17,0.06c0.16,0,0.34-0.09,0.52-0.27C-23.82,81.48-23.42,80.82-22.95,79.79z"/>
	</g>
	<g>
		<path d="M-25.82,79.18l0.12-0.24l0.36-0.75c0.49-1.04,0.81-1.69,0.96-1.95c0.23-0.4,0.44-0.61,0.62-0.61
			c0.06,0,0.11,0.02,0.16,0.07c0.05,0.05,0.07,0.1,0.07,0.14c0,0.07-0.12,0.27-0.35,0.6c-0.14,0.21-0.36,0.59-0.65,1.15
			c-0.23,0.46-0.4,0.82-0.5,1.08c0.3-0.2,0.54-0.39,0.73-0.58c0.22-0.22,0.44-0.49,0.65-0.81c0.1-0.15,0.19-0.22,0.26-0.22
			c0.04,0,0.08,0.02,0.11,0.05c0.04,0.04,0.05,0.08,0.05,0.13c0,0.13-0.08,0.31-0.25,0.54c-0.4,0.57-1.04,1.1-1.9,1.59
			c-0.08,0.13-0.21,0.4-0.39,0.8c-0.32,0.71-0.64,1.28-0.97,1.72c-0.18,0.24-0.4,0.43-0.66,0.58c-0.17,0.1-0.35,0.15-0.54,0.15
			c-0.22,0-0.4-0.08-0.55-0.25c-0.09-0.11-0.14-0.24-0.14-0.4c0-0.4,0.21-0.85,0.63-1.34C-27.5,80.04-26.77,79.55-25.82,79.18z
			 M-26.15,79.79c-0.37,0.14-0.76,0.41-1.18,0.81c-0.49,0.46-0.74,0.86-0.74,1.2c0,0.08,0.02,0.14,0.06,0.18
			c0.04,0.04,0.1,0.06,0.17,0.06c0.16,0,0.34-0.09,0.52-0.27C-27.02,81.48-26.63,80.82-26.15,79.79z"/>
	</g>
	<text transform="matrix(1.0134 0 0 1 -30.3171 79.579)" style="font-family:'FreestyleScript-Regular'; font-size:11.8413px;">y</text>
</g>
<text transform="matrix(1 0 0 1 -28.5754 65.1653)" style="font-family:'FreestyleScript-Regular'; font-size:9.0181px;">J</text>
<text transform="matrix(6.123234e-17 1 -1 6.123234e-17 -28.0442 60.3869)" style="font-family:'FreestyleScript-Regular'; font-size:12px;">y</text>
<polyline class="st0" points="-14,42.64 -13.18,44.12 -10.74,39.97 "/>
</svg>
